<?xml version="1.0" encoding="UTF-8" standalone="no"?>
<svg
   xmlns:dc="http://purl.org/dc/elements/1.1/"
   xmlns:cc="http://creativecommons.org/ns#"
   xmlns:rdf="http://www.w3.org/1999/02/22-rdf-syntax-ns#"
   xmlns:svg="http://www.w3.org/2000/svg"
   xmlns="http://www.w3.org/2000/svg"
   id="svg5826"
   version="1.1"
   width="512"
   viewBox="0 -16 512.00002 512"
   height="512">
  <metadata
     id="metadata5832">
    <rdf:RDF>
      <cc:Work
         rdf:about="">
        <dc:format>image/svg+xml</dc:format>
        <dc:type
           rdf:resource="http://purl.org/dc/dcmitype/StillImage" />
        <dc:title></dc:title>
      </cc:Work>
    </rdf:RDF>
  </metadata>
  <defs
     id="defs5830" />
  <g
     transform="translate(0,0.058595)"
     id="g5854">
    <path
       d="M 480.68359,472.38281 H 31.316406 C 18.164062,472.38281 7.5,461.71875 7.5,448.56641 V 31.316406 C 7.5,18.160156 18.164062,7.5 31.316406,7.5 H 480.68359 C 493.83984,7.5 504.5,18.160156 504.5,31.316406 V 448.56641 c 0,13.15234 -10.66406,23.8164 -23.81641,23.8164 z m 0,0"
       fill="#f4f4f4"
       id="path5786" />
    <path
       d="m 480.68359,7.5 h -35 C 458.83594,7.5 469.5,18.160156 469.5,31.316406 V 448.56641 c 0,13.15234 -10.66406,23.8164 -23.81641,23.8164 h 35 c 13.15235,0 23.81641,-10.66406 23.81641,-23.8164 V 31.316406 C 504.5,18.160156 493.83594,7.5 480.68359,7.5 Z m 0,0"
       fill="#e8e8e8"
       id="path5788" />
    <path
       d="m 7.5,96.964844 h 497 V 31.316406 C 504.5,18.160156 493.83594,7.5 480.68359,7.5 H 31.316406 C 18.164062,7.5 7.5,18.160156 7.5,31.316406 Z m 0,0"
       fill="#fa5d72"
       id="path5790" />
    <path
       d="m 480.68359,7.5 h -35 C 458.83594,7.5 469.5,18.160156 469.5,31.316406 v 65.648438 h 35 V 31.316406 C 504.5,18.160156 493.83594,7.5 480.68359,7.5 Z m 0,0"
       fill="#e35567"
       id="path5792" />
    <path
       d="m 84.808594,52.230469 c 0,9.75 -7.902344,17.65625 -17.652344,17.65625 -9.75,0 -17.65625,-7.90625 -17.65625,-17.65625 0,-9.75 7.90625,-17.652344 17.65625,-17.652344 9.75,0 17.652344,7.902344 17.652344,17.652344 z m 0,0"
       fill="#2cab72"
       id="path5794" />
    <path
       d="m 144.57031,52.230469 c 0,9.75 -7.90625,17.65625 -17.65625,17.65625 -9.75,0 -17.65234,-7.90625 -17.65234,-17.65625 0,-9.75 7.90234,-17.652344 17.65234,-17.652344 9.75,0 17.65625,7.902344 17.65625,17.652344 z m 0,0"
       fill="#f6d867"
       id="path5796" />
    <path
       d="m 204.32812,52.230469 c 0,9.75 -7.90234,17.65625 -17.65234,17.65625 -9.75,0 -17.65625,-7.90625 -17.65625,-17.65625 0,-9.75 7.90625,-17.652344 17.65625,-17.652344 9.75,0 17.65234,7.902344 17.65234,17.652344 z m 0,0"
       fill="#5994ce"
       id="path5798" />
    <path
       d="M 358.95703,422.04687 H 153.04297 C 130.65234,422.04687 112.5,403.89453 112.5,381.50391 V 226.39844 c 0,-22.39063 18.15234,-40.54297 40.54297,-40.54297 h 205.91406 c 22.39063,0 40.54297,18.15234 40.54297,40.54297 v 155.10547 c 0,22.39062 -18.15234,40.54296 -40.54297,40.54296 z m 0,0"
       fill="#9c9a9b"
       id="path5800" />
    <path
       d="m 358.95703,185.85547 h -38.5 c 22.39063,0 40.54297,18.15234 40.54297,40.54297 v 155.10547 c 0,22.39062 -18.15234,40.54296 -40.54297,40.54296 h 38.5 c 22.39063,0 40.54297,-18.15234 40.54297,-40.54296 V 226.39844 c 0,-22.39063 -18.15234,-40.54297 -40.54297,-40.54297 z m 0,0"
       fill="#858384"
       id="path5802" />
    <path
       d="M 331,185.85547 H 181 v -22.375 c 0,-9.64453 7.81641,-17.46485 17.46094,-17.46485 h 115.07422 c 9.64453,0 17.46484,7.82032 17.46484,17.46485 z m 0,0"
       fill="#495663"
       id="path5804" />
    <path
       d="m 313.53906,146.01562 h -30.66797 c 9.64453,0 17.46094,7.82032 17.46094,17.46094 v 22.37891 H 331 v -22.37891 c 0,-9.64062 -7.81641,-17.46094 -17.46094,-17.46094 z m 0,0"
       fill="#3a444f"
       id="path5806" />
    <path
       d="m 92.308594,52.230469 c 0,-13.871094 -11.28125,-25.152344 -25.152344,-25.152344 C 53.285156,27.078125 42,38.359375 42,52.230469 c 0,13.871093 11.285156,25.15625 25.152344,25.15625 13.871094,0 25.15625,-11.285157 25.15625,-25.15625 z M 67.15625,62.386719 C 61.554688,62.386719 57,57.828125 57,52.230469 c 0,-5.597657 4.554688,-10.152344 10.152344,-10.152344 5.601562,0 10.15625,4.554687 10.15625,10.152344 0,5.597656 -4.554688,10.15625 -10.152344,10.15625 z m 0,0"
       id="path5808" />
    <path
       d="m 126.91406,77.386719 c 13.8711,0 25.15625,-11.285157 25.15625,-25.15625 0,-13.871094 -11.28515,-25.152344 -25.15625,-25.152344 -13.86718,0 -25.15234,11.28125 -25.15234,25.152344 0,13.871093 11.28125,25.15625 25.15234,25.15625 z m 0,-35.308594 c 5.60156,0 10.15625,4.554687 10.15625,10.152344 0,5.597656 -4.55469,10.15625 -10.15625,10.15625 -5.59765,0 -10.15234,-4.558594 -10.15234,-10.15625 0,-5.597657 4.55469,-10.152344 10.15234,-10.152344 z m 0,0"
       id="path5810" />
    <path
       d="m 186.67578,77.386719 c 13.86719,0 25.15234,-11.285157 25.15234,-25.15625 0,-13.871094 -11.28515,-25.152344 -25.15234,-25.152344 -13.87109,0 -25.15625,11.28125 -25.15625,25.152344 0,13.871093 11.28516,25.15625 25.15625,25.15625 z m 0,-35.308594 c 5.59766,0 10.15234,4.554687 10.15234,10.152344 0,5.597656 -4.55468,10.15625 -10.15234,10.15625 -5.60156,0 -10.15625,-4.558594 -10.15625,-10.15625 0,-5.597657 4.55469,-10.152344 10.15625,-10.152344 z m 0,0"
       id="path5812" />
    <path
       d="m 269.66797,59.730469 h 182.66797 c 4.14062,0 7.5,-3.355469 7.5,-7.5 0,-4.140625 -3.35938,-7.5 -7.5,-7.5 H 269.66797 c -4.14453,0 -7.5,3.359375 -7.5,7.5 0,4.144531 3.35547,7.5 7.5,7.5 z m 0,0"
       id="path5814" />
    <path
       d="m 511.57812,26.164062 c -0.043,-0.257812 -0.0898,-0.511718 -0.14062,-0.769531 -0.0234,-0.125 -0.0469,-0.253906 -0.0742,-0.382812 C 508.4375,10.757812 495.79297,0 480.68359,0 H 31.316406 C 14.050781,0 0,14.046875 0,31.316406 V 448.56641 c 0,17.26953 14.050781,31.3164 31.316406,31.3164 H 480.68359 C 497.94922,479.88281 512,465.83203 512,448.56641 V 31.316406 c 0,-1.753906 -0.14453,-3.472656 -0.42188,-5.152344 z M 480.68359,464.88281 H 31.316406 C 22.320312,464.88281 15,457.5625 15,448.56641 V 104.46484 h 41.808594 c 4.144531,0 7.5,-3.35937 7.5,-7.499996 0,-4.144532 -3.355469,-7.5 -7.5,-7.5 H 15 V 31.316406 C 15,22.320312 22.320312,15 31.316406,15 H 480.68359 c 7.3086,0 13.51172,4.832031 15.58203,11.46875 0.0195,0.06641 0.0391,0.128906 0.0586,0.191406 0.0586,0.195313 0.10937,0.386719 0.16015,0.582032 0.0195,0.06641 0.0352,0.132812 0.0508,0.199218 0.0469,0.195313 0.0937,0.394532 0.13281,0.589844 0.082,0.398438 0.14844,0.804688 0.19922,1.210938 0.0195,0.136718 0.0351,0.273437 0.0469,0.410156 0.0586,0.546875 0.0859,1.101562 0.0859,1.664062 V 89.464844 H 84.808594 c -4.140625,0 -7.5,3.355468 -7.5,7.5 0,4.140626 3.359375,7.499996 7.5,7.499996 H 497 v 344.10157 c 0,8.99609 -7.32031,16.3164 -16.31641,16.3164 z m 0,0"
       id="path5816" />
    <path
       d="m 166.36328,298.24609 c 2.92969,2.92969 7.67578,2.92578 10.60547,0 l 14.69531,-14.69922 14.69922,14.69922 c 2.92969,2.92969 7.67578,2.92578 10.60547,0 2.92969,-2.92968 2.92969,-7.67968 0,-10.60937 l -14.69531,-14.69531 14.69531,-14.69532 c 2.92969,-2.92968 2.92969,-7.67968 0,-10.60937 -2.92969,-2.92578 -7.67969,-2.92578 -10.60547,0 l -14.69922,14.69922 -14.69531,-14.69922 c -2.92969,-2.92578 -7.67969,-2.92578 -10.60547,0 -2.92969,2.92969 -2.92969,7.67969 0,10.60937 l 14.69531,14.69532 -14.69531,14.69531 c -2.92969,2.92969 -2.92969,7.67969 0,10.60937 z m 0,0"
       id="path5818" />
    <path
       d="m 295.03125,298.24609 c 2.92969,2.92969 7.67578,2.92578 10.60547,0 l 14.69531,-14.69922 14.69922,14.69922 c 2.92969,2.92969 7.67578,2.92578 10.60547,0 2.92969,-2.92968 2.92969,-7.67968 0,-10.60937 l -14.69531,-14.69531 14.69531,-14.69532 c 2.92969,-2.92968 2.92969,-7.67968 0,-10.60937 -2.92969,-2.92578 -7.67969,-2.92578 -10.60547,0 l -14.69922,14.69922 -14.69531,-14.69922 c -2.92969,-2.92578 -7.67969,-2.92578 -10.60547,0 -2.92969,2.92969 -2.92969,7.67969 0,10.60937 l 14.69531,14.69532 -14.69531,14.69531 c -2.92969,2.92969 -2.92969,7.67969 0,10.60937 z m 0,0"
       id="path5820" />
    <path
       d="m 187.50391,359.77344 h 136.99218 c 4.14063,0 7.5,-3.35547 7.5,-7.5 0,-4.14063 -3.35937,-7.5 -7.5,-7.5 H 187.50391 c -4.14063,0 -7.5,3.35937 -7.5,7.5 0,4.14453 3.35937,7.5 7.5,7.5 z m 0,0"
       id="path5822" />
    <path
       d="M 358.95703,178.35547 H 338.5 v -14.875 c 0,-13.76563 -11.19922,-24.96485 -24.96094,-24.96485 H 198.46094 c -13.76172,0 -24.96094,11.19922 -24.96094,24.96485 v 14.875 H 153.04297 C 126.55078,178.35547 105,199.91016 105,226.39844 v 155.10547 c 0,26.48828 21.55078,48.04296 48.04297,48.04296 h 133.29297 c 4.14062,0 7.5,-3.35937 7.5,-7.5 0,-4.14453 -3.35938,-7.5 -7.5,-7.5 H 153.04297 C 134.82422,414.54687 120,399.72266 120,381.50391 V 226.39844 c 0,-18.21875 14.82422,-33.04297 33.04297,-33.04297 h 205.91406 c 18.21875,0 33.04297,14.82422 33.04297,33.04297 v 155.10547 c 0,18.21875 -14.82422,33.04296 -33.04297,33.04296 h -44.625 c -4.14062,0 -7.5,3.35547 -7.5,7.5 0,4.14063 3.35938,7.5 7.5,7.5 h 44.625 C 385.44922,429.54687 407,407.99219 407,381.50391 V 226.39844 c 0,-26.48828 -21.55078,-48.04297 -48.04297,-48.04297 z m -170.45703,0 v -14.875 c 0,-5.4961 4.46875,-9.96485 9.96094,-9.96485 h 115.07422 c 5.49609,0 9.96484,4.46875 9.96484,9.96485 v 14.875 z m 0,0"
       id="path5824" />
  </g>
</svg>
