<svg xmlns="http://www.w3.org/2000/svg" width="512" viewBox="0 -16 512 512" height="512"><path d="M480.684 472.441H31.316c-13.152 0-23.816-10.664-23.816-23.816V31.375c0-13.156 10.664-23.816 23.816-23.816h449.368c13.156 0 23.816 10.66 23.816 23.816v417.25c0 13.152-10.664 23.816-23.816 23.816zm0 0" fill="#f4f4f4"/><path d="M480.684 7.559h-35c13.152 0 23.816 10.66 23.816 23.816v417.25c0 13.152-10.664 23.816-23.816 23.816h35c13.152 0 23.816-10.664 23.816-23.816V31.375c0-13.156-10.664-23.816-23.816-23.816zm0 0" fill="#e8e8e8"/><path d="M7.5 97.023h497V31.375c0-13.156-10.664-23.816-23.816-23.816H31.316C18.164 7.559 7.5 18.219 7.5 31.375zm0 0" fill="#fa5d72"/><path d="M480.684 7.559h-35c13.152 0 23.816 10.66 23.816 23.816v65.648h35V31.375c0-13.156-10.664-23.816-23.816-23.816zm0 0" fill="#e35567"/><path d="M84.809 52.29c0 9.75-7.903 17.655-17.653 17.655S49.5 62.04 49.5 52.29s7.906-17.652 17.656-17.652S84.81 42.539 84.81 52.289zm0 0" fill="#2cab72"/><path d="M144.57 52.29c0 9.75-7.906 17.655-17.656 17.655s-17.652-7.906-17.652-17.656 7.902-17.652 17.652-17.652 17.656 7.902 17.656 17.652zm0 0" fill="#f6d867"/><path d="M204.328 52.29c0 9.75-7.902 17.655-17.652 17.655S169.02 62.04 169.02 52.29s7.906-17.652 17.656-17.652 17.652 7.902 17.652 17.652zm0 0" fill="#5994ce"/><path d="M358.957 422.105H153.043c-22.39 0-40.543-18.152-40.543-40.542V226.457c0-22.39 18.152-40.543 40.543-40.543h205.914c22.39 0 40.543 18.152 40.543 40.543v155.106c0 22.39-18.152 40.542-40.543 40.542zm0 0" fill="#9c9a9b"/><path d="M358.957 185.914h-38.5c22.39 0 40.543 18.152 40.543 40.543v155.106c0 22.39-18.152 40.542-40.543 40.542h38.5c22.39 0 40.543-18.152 40.543-40.542V226.457c0-22.39-18.152-40.543-40.543-40.543zm0 0" fill="#858384"/><path d="M331 185.914H181V163.54c0-9.644 7.816-17.465 17.46-17.465h115.075c9.645 0 17.465 7.82 17.465 17.465zm0 0" fill="#495663"/><path d="M313.54 146.074H282.87c9.645 0 17.461 7.82 17.461 17.461v22.38H331v-22.38c0-9.64-7.816-17.46-17.46-17.46zm0 0" fill="#3a444f"/><path d="M92.309 52.29c0-13.872-11.282-25.153-25.153-25.153C53.286 27.137 42 38.418 42 52.289s11.285 25.156 25.152 25.156c13.871 0 25.157-11.285 25.157-25.156zM67.156 62.444C61.555 62.445 57 57.887 57 52.29c0-5.598 4.555-10.152 10.152-10.152 5.602 0 10.157 4.554 10.157 10.152 0 5.598-4.555 10.156-10.153 10.156zm0 0M126.914 77.445c13.871 0 25.156-11.285 25.156-25.156 0-13.871-11.285-25.152-25.156-25.152-13.867 0-25.152 11.281-25.152 25.152s11.281 25.156 25.152 25.156zm0-35.308c5.602 0 10.156 4.554 10.156 10.152 0 5.598-4.554 10.156-10.156 10.156-5.598 0-10.152-4.558-10.152-10.156 0-5.598 4.554-10.152 10.152-10.152zm0 0M186.676 77.445c13.867 0 25.152-11.285 25.152-25.156 0-13.871-11.285-25.152-25.152-25.152-13.871 0-25.156 11.281-25.156 25.152s11.285 25.156 25.156 25.156zm0-35.308c5.597 0 10.152 4.554 10.152 10.152 0 5.598-4.555 10.156-10.152 10.156-5.602 0-10.156-4.558-10.156-10.156 0-5.598 4.554-10.152 10.156-10.152zm0 0M269.668 59.79h182.668a7.5 7.5 0 100-15H269.668a7.5 7.5 0 00-7.5 7.5c0 4.144 3.355 7.5 7.5 7.5zm0 0"/><path d="M511.578 26.223c-.043-.258-.09-.512-.14-.77-.024-.125-.047-.254-.075-.383C508.438 10.816 495.793.06 480.683.06H31.317C14.051.059 0 14.105 0 31.375v417.25c0 17.27 14.05 31.316 31.316 31.316h449.368c17.265 0 31.316-14.05 31.316-31.316V31.375c0-1.754-.145-3.473-.422-5.152zM480.684 464.94H31.316c-8.996 0-16.316-7.32-16.316-16.316V104.523h41.809a7.5 7.5 0 007.5-7.5c0-4.144-3.356-7.5-7.5-7.5H15V31.375c0-8.996 7.32-16.316 16.316-16.316h449.368c7.308 0 13.511 4.832 15.582 11.468l.058.192a16.112 16.112 0 01.211.781 16.035 16.035 0 01.38 2.21c.058.548.085 1.103.085 1.665v58.148H84.809a7.5 7.5 0 100 15H497v344.102c0 8.996-7.32 16.316-16.316 16.316zm0 0"/><path d="M166.363 298.305a7.5 7.5 0 0010.606 0l14.695-14.7 14.7 14.7a7.5 7.5 0 0010.605-10.61L202.273 273l14.696-14.695a7.502 7.502 0 000-10.61c-2.93-2.925-7.68-2.925-10.606 0l-14.699 14.7-14.695-14.7c-2.93-2.925-7.68-2.925-10.606 0a7.502 7.502 0 000 10.61L181.06 273l-14.696 14.695a7.502 7.502 0 000 10.61zm0 0M295.031 298.305a7.5 7.5 0 0010.606 0l14.695-14.7 14.7 14.7a7.5 7.5 0 0010.605-10.61L330.94 273l14.696-14.695a7.502 7.502 0 000-10.61c-2.93-2.925-7.68-2.925-10.606 0l-14.699 14.7-14.695-14.7c-2.93-2.925-7.68-2.925-10.606 0a7.502 7.502 0 000 10.61L309.727 273l-14.696 14.695a7.502 7.502 0 000 10.61zm0 0M187.504 359.832h136.992a7.5 7.5 0 100-15H187.504a7.5 7.5 0 100 15zm0 0"/><path d="M358.957 178.414H338.5V163.54c0-13.766-11.2-24.965-24.96-24.965H198.46c-13.76 0-24.96 11.2-24.96 24.965v14.875h-20.457c-26.492 0-48.043 21.555-48.043 48.043v155.106c0 26.488 21.55 48.042 48.043 48.042h133.293a7.5 7.5 0 100-15H153.043c-18.219 0-33.043-14.824-33.043-33.042V226.457c0-18.219 14.824-33.043 33.043-33.043h205.914c18.219 0 33.043 14.824 33.043 33.043v155.106c0 18.218-14.824 33.042-33.043 33.042h-44.625a7.5 7.5 0 100 15h44.625c26.492 0 48.043-21.554 48.043-48.042V226.457c0-26.488-21.55-48.043-48.043-48.043zm-170.457 0V163.54c0-5.496 4.469-9.965 9.96-9.965h115.075c5.496 0 9.965 4.469 9.965 9.965v14.875zm0 0"/></svg>